<?xml version="1.0" encoding="UTF-8" standalone="no"?>
<svg
   xmlns:dc="http://purl.org/dc/elements/1.1/"
   xmlns:cc="http://creativecommons.org/ns#"
   xmlns:rdf="http://www.w3.org/1999/02/22-rdf-syntax-ns#"
   xmlns:svg="http://www.w3.org/2000/svg"
   xmlns="http://www.w3.org/2000/svg"
   xmlns:sodipodi="http://sodipodi.sourceforge.net/DTD/sodipodi-0.dtd"
   xmlns:inkscape="http://www.inkscape.org/namespaces/inkscape"
   width="16"
   height="16"
   viewBox="0 0 4.2333333 4.2333333"
   version="1.1"
   id="svg8"
   inkscape:version="1.0.2 (e86c870879, 2021-01-15, custom)"
   sodipodi:docname="leaders.svg">
  <defs
     id="defs2" />
  <sodipodi:namedview
     id="base"
     pagecolor="#ffffff"
     bordercolor="#666666"
     borderopacity="1.0"
     inkscape:pageopacity="0.0"
     inkscape:pageshadow="2"
     inkscape:zoom="20.952862"
     inkscape:cx="8.2852341"
     inkscape:cy="10.802305"
     inkscape:document-units="px"
     inkscape:current-layer="layer1"
     inkscape:document-rotation="0"
     showgrid="false"
     inkscape:window-width="1280"
     inkscape:window-height="961"
     inkscape:window-x="-4"
     inkscape:window-y="-4"
     inkscape:window-maximized="1"
     units="px"
     inkscape:pagecheckerboard="true"
     showborder="true"
     borderlayer="false"
     inkscape:showpageshadow="false" />
  <metadata
     id="metadata5">
    <rdf:RDF>
      <cc:Work
         rdf:about="">
        <dc:format>image/svg+xml</dc:format>
        <dc:type
           rdf:resource="http://purl.org/dc/dcmitype/StillImage" />
        <dc:title></dc:title>
      </cc:Work>
    </rdf:RDF>
  </metadata>
  <g
     inkscape:label="Слой 1"
     inkscape:groupmode="layer"
     id="layer1">
    <path
       style="color:#000000;font-style:normal;font-variant:normal;font-weight:normal;font-stretch:normal;font-size:medium;line-height:normal;font-family:sans-serif;font-variant-ligatures:normal;font-variant-position:normal;font-variant-caps:normal;font-variant-numeric:normal;font-variant-alternates:normal;font-variant-east-asian:normal;font-feature-settings:normal;font-variation-settings:normal;text-indent:0;text-align:start;text-decoration:none;text-decoration-line:none;text-decoration-style:solid;text-decoration-color:#000000;letter-spacing:normal;word-spacing:normal;text-transform:none;writing-mode:lr-tb;direction:ltr;text-orientation:mixed;dominant-baseline:auto;baseline-shift:baseline;text-anchor:start;white-space:normal;shape-padding:0;shape-margin:0;inline-size:0;clip-rule:nonzero;display:inline;overflow:visible;visibility:visible;isolation:auto;mix-blend-mode:normal;color-interpolation:sRGB;color-interpolation-filters:linearRGB;solid-color:#000000;solid-opacity:1;vector-effect:none;fill:#ffffff;fill-opacity:1;fill-rule:evenodd;stroke:none;stroke-linecap:round;stroke-linejoin:round;stroke-miterlimit:4;stroke-dasharray:none;stroke-dashoffset:0;stroke-opacity:1;color-rendering:auto;image-rendering:auto;shape-rendering:auto;text-rendering:auto;enable-background:accumulate;stop-color:#000000;stop-opacity:1;opacity:1"
       d="M 2.1035156 0.095703125 A 0.18227722 0.18227722 0 0 0 1.953125 0.1953125 L 1.3984375 1.3222656 L 0.15625 1.5019531 A 0.18227722 0.18227722 0 0 0 0.0546875 1.8125 L 0.953125 2.6894531 L 0.7421875 3.9257812 A 0.18227722 0.18227722 0 0 0 1.0058594 4.1171875 L 2.1171875 3.5332031 L 3.2265625 4.1171875 A 0.18227722 0.18227722 0 0 0 3.4921875 3.9257812 L 3.2792969 2.6894531 L 4.1777344 1.8125 A 0.18227722 0.18227722 0 0 0 4.078125 1.5019531 L 2.8359375 1.3222656 L 2.2792969 0.1953125 A 0.18227722 0.18227722 0 0 0 2.1035156 0.095703125 z M 2.1171875 0.6875 L 2.5507812 1.5683594 A 0.18227722 0.18227722 0 0 0 2.6875 1.6679688 L 3.6601562 1.8105469 L 2.9570312 2.4941406 A 0.18227722 0.18227722 0 0 0 2.9042969 2.65625 L 3.0703125 3.6230469 L 2.2011719 3.1660156 A 0.18227722 0.18227722 0 0 0 2.03125 3.1660156 L 1.1640625 3.6230469 L 1.328125 2.65625 A 0.18227722 0.18227722 0 0 0 1.2773438 2.4941406 L 0.57421875 1.8105469 L 1.5449219 1.6679688 A 0.18227722 0.18227722 0 0 0 1.6816406 1.5683594 L 2.1171875 0.6875 z "
       id="path851" />
  </g>
</svg>
