<?xml version="1.0" encoding="UTF-8" standalone="no"?>
<svg
   xmlns:dc="http://purl.org/dc/elements/1.1/"
   xmlns:cc="http://creativecommons.org/ns#"
   xmlns:rdf="http://www.w3.org/1999/02/22-rdf-syntax-ns#"
   xmlns:svg="http://www.w3.org/2000/svg"
   xmlns="http://www.w3.org/2000/svg"
   xmlns:sodipodi="http://sodipodi.sourceforge.net/DTD/sodipodi-0.dtd"
   xmlns:inkscape="http://www.inkscape.org/namespaces/inkscape"
   width="16"
   height="16"
   viewBox="0 0 4.2333333 4.2333333"
   version="1.1"
   id="svg8"
   inkscape:version="1.0.2 (e86c870879, 2021-01-15, custom)"
   sodipodi:docname="settings.svg">
  <defs
     id="defs2" />
  <sodipodi:namedview
     id="base"
     pagecolor="#ffffff"
     bordercolor="#666666"
     borderopacity="1.0"
     inkscape:pageopacity="0.0"
     inkscape:pageshadow="2"
     inkscape:zoom="20.952862"
     inkscape:cx="8.2852341"
     inkscape:cy="10.802305"
     inkscape:document-units="px"
     inkscape:current-layer="layer1"
     inkscape:document-rotation="0"
     showgrid="false"
     inkscape:window-width="1280"
     inkscape:window-height="961"
     inkscape:window-x="-4"
     inkscape:window-y="-4"
     inkscape:window-maximized="1"
     units="px"
     inkscape:pagecheckerboard="true"
     showborder="true"
     borderlayer="false"
     inkscape:showpageshadow="false" />
  <metadata
     id="metadata5">
    <rdf:RDF>
      <cc:Work
         rdf:about="">
        <dc:format>image/svg+xml</dc:format>
        <dc:type
           rdf:resource="http://purl.org/dc/dcmitype/StillImage" />
        <dc:title />
      </cc:Work>
    </rdf:RDF>
  </metadata>
  <g
     inkscape:label="Слой 1"
     inkscape:groupmode="layer"
     id="layer1">
    <path
       style="color:#000000;font-style:normal;font-variant:normal;font-weight:normal;font-stretch:normal;font-size:medium;line-height:normal;font-family:sans-serif;font-variant-ligatures:normal;font-variant-position:normal;font-variant-caps:normal;font-variant-numeric:normal;font-variant-alternates:normal;font-variant-east-asian:normal;font-feature-settings:normal;font-variation-settings:normal;text-indent:0;text-align:start;text-decoration:none;text-decoration-line:none;text-decoration-style:solid;text-decoration-color:#000000;letter-spacing:normal;word-spacing:normal;text-transform:none;writing-mode:lr-tb;direction:ltr;text-orientation:mixed;dominant-baseline:auto;baseline-shift:baseline;text-anchor:start;white-space:normal;shape-padding:0;shape-margin:0;inline-size:0;clip-rule:nonzero;display:inline;overflow:visible;visibility:visible;isolation:auto;mix-blend-mode:normal;color-interpolation:sRGB;color-interpolation-filters:linearRGB;solid-color:#000000;solid-opacity:1;vector-effect:none;fill:#ffffff;fill-opacity:1;fill-rule:evenodd;stroke:none;stroke-linecap:round;stroke-linejoin:round;stroke-miterlimit:4;stroke-dasharray:none;stroke-dashoffset:0;stroke-opacity:1;paint-order:normal;color-rendering:auto;image-rendering:auto;shape-rendering:auto;text-rendering:auto;enable-background:accumulate;stop-color:#000000;stop-opacity:1;opacity:1"
       d="M 1.7070312 0.052734375 C 1.583405 -0.027492046 1.4258691 -0.0085899692 1.2636719 0.05859375 C 1.1014745 0.12577743 0.97795392 0.22304117 0.94726562 0.3671875 C 0.91657733 0.51133383 0.97720813 0.61141051 1.0117188 0.68359375 C 1.0462294 0.75577699 1.06712 0.80948658 1.0683594 0.84375 C 1.0695987 0.87801342 1.0673522 0.90921123 0.98828125 0.98828125 C 0.90921041 1.0673514 0.8780048 1.0696002 0.84375 1.0683594 C 0.8094952 1.0671185 0.75577005 1.0462344 0.68359375 1.0117188 C 0.61141745 0.97720314 0.51133905 0.91658418 0.3671875 0.94726562 C 0.22303595 0.97794707 0.12577771 1.101477 0.05859375 1.2636719 C -0.0085915934 1.4258699 -0.02749592 1.583407 0.052734375 1.7070312 C 0.13296467 1.8306555 0.24681717 1.8581242 0.32226562 1.8847656 C 0.39771408 1.9114071 0.44950026 1.9336758 0.47460938 1.9570312 C 0.49971849 1.9803867 0.52148437 2.0053682 0.52148438 2.1171875 C 0.52148433 2.2290069 0.49970935 2.252048 0.47460938 2.2753906 C 0.4495094 2.2987332 0.39771312 2.3210295 0.32226562 2.3476562 C 0.24681813 2.374283 0.13298119 2.4017674 0.052734375 2.5253906 C -0.02751244 2.6490139 -0.0085908479 2.8065537 0.05859375 2.96875 C 0.12577834 3.1309463 0.22304196 3.2564218 0.3671875 3.2871094 C 0.51133304 3.3177969 0.61140984 3.2571666 0.68359375 3.2226562 C 0.75577766 3.1881459 0.80948482 3.1672551 0.84375 3.1660156 C 0.87801518 3.1647761 0.90921064 3.1650708 0.98828125 3.2441406 C 1.0673521 3.3232108 1.0696002 3.3563718 1.0683594 3.390625 C 1.0671186 3.4248782 1.0462347 3.4766525 1.0117188 3.5488281 C 0.97720283 3.6210038 0.91658342 3.7210821 0.94726562 3.8652344 C 0.97794783 4.0093867 1.101476 4.1085982 1.2636719 4.1757812 C 1.4258676 4.2429645 1.5834049 4.2599224 1.7070312 4.1796875 C 1.8306576 4.0994526 1.8581357 3.9855985 1.8847656 3.9101562 C 1.9113956 3.834714 1.9336873 3.782911 1.9570312 3.7578125 C 1.9803752 3.732714 2.0053642 3.7109375 2.1171875 3.7109375 C 2.2290105 3.7109376 2.2520384 3.7346607 2.2753906 3.7597656 C 2.2987429 3.7848706 2.3210171 3.8366654 2.3476562 3.9121094 C 2.3742954 3.9875533 2.4017643 4.0994612 2.5253906 4.1796875 C 2.649017 4.2599138 2.8065524 4.2429649 2.96875 4.1757812 C 3.1309474 4.1085974 3.2564211 4.0093807 3.2871094 3.8652344 C 3.3177977 3.7210881 3.2571669 3.6210114 3.2226562 3.5488281 C 3.1881456 3.4766449 3.167255 3.4248885 3.1660156 3.390625 C 3.1647762 3.3563615 3.1650697 3.3232108 3.2441406 3.2441406 C 3.3232115 3.1650705 3.3563702 3.1647748 3.390625 3.1660156 C 3.4248798 3.1672565 3.4766519 3.1881406 3.5488281 3.2226562 C 3.6210044 3.2571719 3.7210828 3.3177907 3.8652344 3.2871094 C 4.0093859 3.2564281 4.1085973 3.1309448 4.1757812 2.96875 C 4.2429653 2.8065552 4.2599237 2.6490166 4.1796875 2.5253906 C 4.0994513 2.4017646 3.9875522 2.3742859 3.9121094 2.3476562 C 3.8366665 2.3210266 3.7848644 2.2987344 3.7597656 2.2753906 C 3.7346668 2.2520469 3.7109375 2.229009 3.7109375 2.1171875 C 3.7109375 2.0053661 3.7346605 1.9803834 3.7597656 1.9570312 C 3.7848708 1.9336791 3.836665 1.9114044 3.9121094 1.8847656 C 3.9875538 1.8581268 4.0994599 1.8306572 4.1796875 1.7070312 C 4.2599151 1.5834053 4.2429658 1.4258682 4.1757812 1.2636719 C 4.1085968 1.1014756 4.0093915 0.9779375 3.8652344 0.94726562 C 3.7210772 0.91659375 3.6210057 0.97719778 3.5488281 1.0117188 C 3.4766506 1.0462397 3.4248798 1.0671169 3.390625 1.0683594 C 3.3563702 1.0696019 3.32321 1.0673499 3.2441406 0.98828125 C 3.1650711 0.90921246 3.1647758 0.87801871 3.1660156 0.84375 C 3.1672555 0.80948129 3.1881447 0.75578171 3.2226562 0.68359375 C 3.2571678 0.61140579 3.3177943 0.5113345 3.2871094 0.3671875 C 3.2564244 0.2230405 3.1309491 0.12577824 2.96875 0.05859375 C 2.8065542 -0.0085893877 2.6490169 -0.027500581 2.5253906 0.052734375 C 2.4017644 0.13296933 2.3742862 0.24682346 2.3476562 0.32226562 C 2.3210263 0.39770779 2.2987345 0.44951091 2.2753906 0.47460938 C 2.2520467 0.49970784 2.229011 0.52148441 2.1171875 0.52148438 C 2.0053641 0.52148435 1.9803835 0.49971418 1.9570312 0.47460938 C 1.933679 0.44950457 1.9114046 0.39770936 1.8847656 0.32226562 C 1.8581267 0.24682189 1.8306575 0.1329608 1.7070312 0.052734375 z M 1.5039062 0.3671875 C 1.4852952 0.35511001 1.5076596 0.37492421 1.5332031 0.44726562 C 1.5587467 0.51960704 1.5906083 0.62855156 1.6835938 0.72851562 C 1.7765792 0.82847969 1.9315303 0.89453121 2.1171875 0.89453125 C 2.3028444 0.8945313 2.4558473 0.828485 2.5488281 0.72851562 C 2.6418089 0.62854625 2.6756364 0.51960731 2.7011719 0.44726562 C 2.7267074 0.37492394 2.7471393 0.35510048 2.7285156 0.3671875 C 2.7098919 0.37927452 2.7135316 0.35764012 2.8261719 0.40429688 C 2.9388089 0.45095225 2.9264933 0.46700752 2.921875 0.4453125 C 2.9172567 0.42361748 2.9178581 0.45421799 2.8847656 0.5234375 C 2.8516732 0.59265701 2.7959519 0.69364051 2.7910156 0.83007812 C 2.7860794 0.96651574 2.8491878 1.1226265 2.9804688 1.2539062 C 3.11175 1.3851862 3.2678577 1.4463552 3.4042969 1.4414062 C 3.5407361 1.4364573 3.6417248 1.3807592 3.7109375 1.3476562 C 3.7801502 1.3145533 3.8088273 1.3171209 3.7871094 1.3125 C 3.7653914 1.3078791 3.7834219 1.2936128 3.8300781 1.40625 C 3.8767344 1.5188873 3.8551095 1.5225177 3.8671875 1.5039062 C 3.8792655 1.4852948 3.8594515 1.5076597 3.7871094 1.5332031 C 3.7147673 1.5587465 3.6038711 1.5906092 3.5039062 1.6835938 C 3.4039414 1.7765783 3.3378906 1.9315309 3.3378906 2.1171875 C 3.3378906 2.3028437 3.403936 2.4558483 3.5039062 2.5488281 C 3.6038765 2.641808 3.714767 2.6756366 3.7871094 2.7011719 C 3.8594518 2.7267071 3.8792752 2.74714 3.8671875 2.7285156 C 3.8550998 2.7098912 3.8767352 2.713533 3.8300781 2.8261719 C 3.7834212 2.9388107 3.7653941 2.9264969 3.7871094 2.921875 C 3.8088246 2.9172531 3.7801476 2.9178628 3.7109375 2.8847656 C 3.6417274 2.8516685 3.5407331 2.7959579 3.4042969 2.7910156 C 3.2678606 2.7860734 3.1117483 2.8491903 2.9804688 2.9804688 C 2.8491888 3.1117475 2.7860805 3.2678609 2.7910156 3.4042969 C 2.7959508 3.5407329 2.8516741 3.6417225 2.8847656 3.7109375 C 2.9178571 3.7801525 2.9172549 3.8088105 2.921875 3.7871094 C 2.9264951 3.7654082 2.9388109 3.7834219 2.8261719 3.8300781 C 2.7135329 3.8767342 2.709905 3.8551103 2.7285156 3.8671875 C 2.7471262 3.8792647 2.7267155 3.8594508 2.7011719 3.7871094 C 2.6756282 3.714768 2.6418134 3.6038703 2.5488281 3.5039062 C 2.4558429 3.4039422 2.3028446 3.3378907 2.1171875 3.3378906 C 1.9315307 3.3378906 1.7765745 3.4039368 1.6835938 3.5039062 C 1.590613 3.6038757 1.5587386 3.7147677 1.5332031 3.7871094 C 1.5076676 3.8594511 1.4852825 3.8792745 1.5039062 3.8671875 C 1.52253 3.8551005 1.5188902 3.876735 1.40625 3.8300781 C 1.2936096 3.7834214 1.3078776 3.7653922 1.3125 3.7871094 C 1.3171224 3.8088266 1.3145588 3.7801469 1.3476562 3.7109375 C 1.3807537 3.6417281 1.4364639 3.5407333 1.4414062 3.4042969 C 1.4463486 3.2678605 1.3851858 3.1117472 1.2539062 2.9804688 C 1.1226264 2.8491903 0.96651383 2.7860803 0.83007812 2.7910156 C 0.69364242 2.7959509 0.59265307 2.8516744 0.5234375 2.8847656 C 0.45422193 2.9178568 0.42361313 2.9172554 0.4453125 2.921875 C 0.46701187 2.9264946 0.45095326 2.9388092 0.40429688 2.8261719 C 0.35764049 2.7135346 0.37927781 2.70989 0.3671875 2.7285156 C 0.35509719 2.7471412 0.37491728 2.7267049 0.44726562 2.7011719 C 0.51961397 2.6756389 0.62853855 2.6418053 0.72851562 2.5488281 C 0.8284927 2.4558509 0.89453118 2.302846 0.89453125 2.1171875 C 0.89453125 1.9315295 0.82848241 1.7765786 0.72851562 1.6835938 C 0.62854884 1.5906089 0.51961153 1.5587491 0.44726562 1.5332031 C 0.37491972 1.5076572 0.35511261 1.4853004 0.3671875 1.5039062 C 0.37926239 1.5225121 0.35764124 1.5188855 0.40429688 1.40625 C 0.45095389 1.2936111 0.46702772 1.3078781 0.4453125 1.3125 C 0.42359728 1.3171219 0.45422744 1.3145591 0.5234375 1.3476562 C 0.59264756 1.3807534 0.69364187 1.436464 0.83007812 1.4414062 C 0.96651438 1.4463485 1.1226267 1.3851847 1.2539062 1.2539062 C 1.3851863 1.1226277 1.4463414 0.96651412 1.4414062 0.83007812 C 1.4364711 0.69364213 1.3807478 0.59265249 1.3476562 0.5234375 C 1.3145647 0.45422251 1.3171201 0.42361118 1.3125 0.4453125 C 1.3078799 0.46701382 1.2936111 0.45095297 1.40625 0.40429688 C 1.5188887 0.35764078 1.5225173 0.37926499 1.5039062 0.3671875 z M 1.75 1.2324219 C 1.2640242 1.4337234 1.0311273 1.9964448 1.2324219 2.4824219 C 1.4337257 2.9683958 1.9964418 3.2012925 2.4824219 3 C 2.9683982 2.7986986 3.2012951 2.2359774 3 1.75 C 2.7986959 1.2640263 2.23598 1.0311291 1.75 1.2324219 z M 1.8945312 1.578125 C 2.1938408 1.454151 2.5303171 1.5952284 2.6542969 1.8945312 C 2.7782711 2.1938364 2.6391511 2.5303176 2.3398438 2.6542969 C 2.0405341 2.7782707 1.7021045 2.6391467 1.578125 2.3398438 C 1.4541511 2.0405388 1.5952243 1.7021043 1.8945312 1.578125 z "
       id="path896" />
  </g>
</svg>
